<svg width="500" height="500" viewBox="0 0 500 500" fill="none" xmlns="http://www.w3.org/2000/svg">
<circle cx="250" cy="250" r="250" fill="url(#paint0_linear_2_17)" fill-opacity="0.97"/>
<circle cx="250" cy="250" r="106" fill="url(#paint1_angular_2_17)"/>
<circle cx="250" cy="250" r="90" fill="url(#paint2_angular_2_17)"/>
<circle cx="250" cy="250" r="50" fill="white"/>
<path d="M148.467 419.007C147.96 419.006 147.534 418.805 147.188 418.405C146.842 418.004 146.669 417.497 146.67 416.884L146.697 398.884C146.698 398.004 146.82 397.084 147.061 396.125C147.329 395.165 147.81 394.272 148.505 393.447C149.226 392.594 150.241 391.903 151.548 391.371C152.856 390.84 154.563 390.576 156.669 390.579C159.469 390.583 161.642 391.28 163.186 392.669C164.731 394.058 165.501 396.139 165.497 398.912C165.495 400.032 165.28 401.058 164.852 401.991C164.451 402.924 163.836 403.63 163.009 404.108C164.315 404.697 165.247 405.512 165.805 406.552C166.391 407.593 166.682 409.034 166.679 410.874C166.675 413.54 165.845 415.566 164.19 416.95C162.561 418.334 160.04 419.024 156.627 419.019L148.467 419.007ZM152.17 403.372C152.517 402.946 153.078 402.613 153.852 402.375C154.652 402.136 155.586 402.017 156.652 402.019C157.906 402.021 158.759 401.795 159.213 401.343C159.694 400.863 159.935 400.05 159.937 398.904C159.939 397.57 159.66 396.623 159.101 396.062C158.569 395.475 157.756 395.18 156.662 395.179C155.116 395.177 154.022 395.455 153.381 396.014C152.767 396.573 152.459 397.533 152.457 398.893C152.456 399.719 152.441 400.386 152.414 400.892C152.413 401.372 152.386 401.799 152.332 402.172C152.305 402.546 152.251 402.946 152.17 403.372ZM152.434 414.373L156.634 414.379C158.234 414.381 159.341 414.103 159.955 413.544C160.596 412.985 160.917 412.092 160.919 410.865C160.922 409.132 160.59 407.891 159.925 407.144C159.286 406.396 158.193 406.021 156.646 406.019C155.553 406.017 154.699 406.163 154.086 406.455C153.472 406.721 153.044 407.2 152.803 407.893C152.562 408.586 152.441 409.573 152.439 410.853L152.434 414.373ZM177.883 419.37C175.217 419.366 173.137 418.75 171.646 417.521C170.155 416.266 169.41 414.651 169.413 412.678C169.417 410.358 170.392 408.679 172.341 407.642C174.316 406.605 177.196 406.249 180.982 406.575C180.797 405.348 180.412 404.521 179.826 404.093C179.24 403.639 178.534 403.411 177.707 403.41C177.04 403.409 176.48 403.448 176.027 403.528C175.6 403.58 175.2 403.646 174.827 403.726C174.453 403.805 174 403.845 173.466 403.844C172.746 403.843 172.173 403.722 171.747 403.481C171.321 403.214 171.108 402.694 171.109 401.92C171.111 400.827 171.579 400.028 172.513 399.522C173.474 398.991 174.981 398.726 177.034 398.729C180.287 398.734 182.699 399.671 184.27 401.54C185.84 403.382 186.623 405.85 186.619 408.943C186.613 412.517 185.956 415.156 184.647 416.861C183.364 418.539 181.11 419.375 177.883 419.37ZM175.173 412.686C175.171 414.206 176.196 414.968 178.25 414.971C178.916 414.972 179.437 414.853 179.81 414.613C180.184 414.374 180.451 413.894 180.612 413.175C180.8 412.455 180.935 411.375 181.017 409.935C180.884 410.068 180.71 410.161 180.497 410.214C180.283 410.267 180.07 410.294 179.857 410.293C178.097 410.291 176.87 410.462 176.176 410.808C175.509 411.127 175.175 411.753 175.173 412.686ZM199.008 419.402C195.755 419.397 193.343 418.46 191.772 416.591C190.202 414.695 189.419 412.201 189.423 409.108C189.428 406.014 190.218 403.522 191.794 401.631C193.371 399.714 195.785 398.757 199.039 398.762C201.092 398.765 202.585 398.981 203.518 399.409C204.477 399.837 204.956 400.597 204.954 401.691C204.953 402.464 204.739 403.024 204.312 403.37C203.885 403.716 203.311 403.888 202.591 403.887C202.084 403.887 201.684 403.846 201.391 403.765C201.098 403.685 200.778 403.618 200.432 403.564C200.112 403.484 199.605 403.443 198.912 403.442C197.978 403.44 197.231 403.719 196.67 404.278C196.136 404.838 195.749 405.557 195.507 406.437C195.293 407.29 195.185 408.183 195.183 409.116C195.182 410.023 195.261 410.916 195.419 411.797C195.605 412.65 195.964 413.357 196.496 413.918C197.029 414.452 197.842 414.72 198.935 414.722C199.948 414.723 200.695 414.658 201.175 414.525C201.655 414.366 202.122 414.287 202.576 414.287C203.296 414.288 203.869 414.423 204.295 414.69C204.721 414.93 204.934 415.437 204.933 416.211C204.931 417.304 204.45 418.117 203.489 418.649C202.555 419.154 201.061 419.405 199.008 419.402ZM211.766 419.421C210.726 419.419 209.98 419.138 209.528 418.578C209.102 418.017 208.89 417.257 208.891 416.297L208.928 391.737C208.929 390.777 209.143 390.017 209.571 389.458C210.025 388.898 210.772 388.619 211.812 388.621C212.852 388.623 213.585 388.904 214.011 389.464C214.463 390.025 214.689 390.785 214.688 391.745L214.665 406.625C216.08 405.774 217.335 404.816 218.43 403.751C219.525 402.659 220.273 401.62 220.674 400.634C221.049 399.728 221.583 399.116 222.277 398.797C222.971 398.478 223.731 398.519 224.557 398.92C225.703 399.482 226.235 400.336 226.153 401.482C226.125 402.442 225.683 403.522 224.828 404.72C224 405.893 222.972 406.904 221.744 407.756C223.29 408.291 224.528 409.267 225.459 410.681C226.417 412.069 226.894 414.084 226.89 416.724C226.888 418.537 225.94 419.442 224.046 419.439C222.1 419.436 221.128 418.528 221.13 416.715C221.133 414.768 220.829 413.341 220.217 412.434C219.605 411.526 218.792 411.071 217.779 411.07C216.845 411.069 216.085 411.414 215.497 412.107C214.936 412.799 214.654 413.999 214.652 415.705C214.65 417.252 214.421 418.265 213.967 418.744C213.513 419.197 212.78 419.422 211.766 419.421ZM239.29 419.462C237.53 419.459 235.984 419.097 234.651 418.375C233.319 417.653 232.281 416.638 231.536 415.33C230.818 414.023 230.46 412.502 230.463 410.769L230.477 401.409C230.479 399.595 231.441 398.69 233.361 398.693C235.281 398.696 236.239 399.604 236.237 401.417L236.223 410.697C236.221 411.951 236.486 412.924 237.018 413.619C237.551 414.313 238.31 414.661 239.297 414.662C240.284 414.663 241.044 414.318 241.578 413.625C242.113 412.933 242.381 411.96 242.383 410.707L242.397 401.427C242.399 399.613 243.361 398.708 245.281 398.711C247.201 398.714 248.159 399.622 248.157 401.435L248.143 410.795C248.14 412.528 247.764 414.048 247.016 415.353C246.294 416.659 245.266 417.671 243.931 418.389C242.624 419.107 241.076 419.465 239.29 419.462ZM255.037 428.365C253.09 428.363 252.119 427.321 252.122 425.241L252.145 409.481C252.151 405.854 252.955 403.149 254.557 401.365C256.16 399.58 258.401 398.69 261.281 398.695C264.215 398.699 266.52 399.636 268.197 401.505C269.901 403.374 270.75 406.109 270.745 409.709C270.741 412.109 270.392 414.028 269.696 415.467C269.001 416.88 268.039 417.905 266.812 418.543C265.584 419.181 264.17 419.499 262.57 419.497C261.184 419.495 260.037 419.293 259.131 418.892C258.252 418.49 257.559 417.876 257.054 417.048C257.24 417.582 257.372 418.102 257.452 418.609C257.558 419.116 257.623 419.703 257.649 420.369C257.701 421.036 257.727 421.889 257.725 422.929L257.722 425.249C257.719 427.329 256.824 428.368 255.037 428.365ZM261.537 414.815C262.657 414.817 263.525 414.431 264.139 413.659C264.78 412.86 265.102 411.367 265.106 409.18C265.109 406.994 264.791 405.513 264.152 404.739C263.54 403.938 262.674 403.537 261.554 403.535C260.434 403.533 259.554 403.932 258.912 404.731C258.298 405.504 257.989 406.983 257.986 409.17C257.982 411.356 258.287 412.85 258.899 413.651C259.538 414.425 260.417 414.813 261.537 414.815ZM282.991 419.527C280.058 419.523 277.739 418.586 276.035 416.717C274.358 414.848 273.522 412.113 273.528 408.513C273.531 406.113 273.881 404.207 274.576 402.795C275.272 401.382 276.233 400.384 277.461 399.799C278.715 399.187 280.129 398.883 281.702 398.885C283.115 398.887 284.262 399.062 285.141 399.41C286.021 399.758 286.713 400.346 287.219 401.173C287.033 400.613 286.887 400.093 286.781 399.613C286.702 399.106 286.636 398.519 286.584 397.852C286.558 397.186 286.546 396.332 286.547 395.292L286.552 391.852C286.556 389.772 287.45 388.734 289.237 388.736C291.184 388.739 292.156 389.781 292.152 391.861L292.127 408.781C292.122 412.381 291.318 415.073 289.715 416.857C288.113 418.641 285.871 419.531 282.991 419.527ZM282.718 414.727C283.838 414.728 284.706 414.33 285.32 413.531C285.961 412.732 286.284 411.239 286.287 409.052C286.289 407.585 286.144 406.478 285.852 405.731C285.586 404.958 285.187 404.424 284.654 404.13C284.121 403.835 283.482 403.688 282.735 403.687C281.988 403.686 281.348 403.831 280.814 404.124C280.28 404.416 279.866 404.949 279.572 405.722C279.304 406.468 279.169 407.575 279.167 409.041C279.164 411.228 279.468 412.722 280.08 413.523C280.719 414.324 281.598 414.725 282.718 414.727ZM305.511 419.561C302.631 419.556 300.392 418.66 298.795 416.871C297.198 415.082 296.402 412.387 296.407 408.787L296.432 391.867C296.435 389.787 297.41 388.749 299.357 388.751C301.143 388.754 302.035 389.795 302.032 391.875L302.027 395.315C302.025 396.355 301.998 397.209 301.943 397.875C301.916 398.542 301.848 399.129 301.741 399.635C301.66 400.115 301.526 400.635 301.338 401.194C301.846 400.369 302.54 399.783 303.421 399.438C304.328 399.092 305.475 398.921 306.862 398.923C308.462 398.925 309.875 399.234 311.1 399.849C312.326 400.437 313.285 401.439 313.976 402.853C314.667 404.268 315.011 406.175 315.007 408.575C315.002 412.175 314.145 414.907 312.435 416.771C310.752 418.635 308.444 419.565 305.511 419.561ZM305.798 414.761C306.918 414.763 307.785 414.364 308.4 413.565C309.041 412.766 309.363 411.273 309.367 409.086C309.369 407.62 309.224 406.513 308.931 405.766C308.666 404.992 308.267 404.458 307.734 404.164C307.201 403.87 306.561 403.722 305.815 403.721C305.068 403.72 304.428 403.866 303.894 404.158C303.36 404.451 302.946 404.984 302.651 405.756C302.384 406.503 302.249 407.609 302.247 409.076C302.243 411.262 302.548 412.756 303.16 413.557C303.799 414.358 304.678 414.759 305.798 414.761ZM328.208 419.594C325.541 419.591 323.449 419.147 321.93 418.265C320.438 417.383 319.373 416.168 318.735 414.62C318.124 413.073 317.82 411.299 317.823 409.299C317.829 405.619 318.646 402.98 320.275 401.383C321.904 399.758 324.092 398.948 326.839 398.952C328.492 398.955 329.958 399.237 331.238 399.799C332.517 400.361 333.516 401.162 334.234 402.203C334.952 403.218 335.311 404.458 335.308 405.925C335.302 410.192 332.259 412.321 326.179 412.311L323.859 412.308C324.071 413.135 324.417 413.789 324.896 414.27C325.402 414.724 326.282 414.952 327.535 414.953C328.228 414.955 328.788 414.915 329.215 414.836C329.642 414.757 330.042 414.677 330.416 414.598C330.816 414.518 331.269 414.479 331.776 414.48C332.496 414.481 333.069 414.615 333.495 414.882C333.921 415.123 334.134 415.63 334.133 416.403C334.131 417.497 333.65 418.309 332.689 418.841C331.755 419.346 330.261 419.598 328.208 419.594ZM323.583 409.348C323.797 409.055 324.037 408.868 324.304 408.789C324.571 408.682 324.984 408.63 325.544 408.631C327.118 408.633 328.198 408.488 328.785 408.195C329.399 407.876 329.706 407.317 329.708 406.517C329.709 405.503 329.43 404.73 328.871 404.195C328.312 403.635 327.606 403.354 326.752 403.352C325.766 403.351 324.992 403.763 324.43 404.589C323.869 405.415 323.587 407.001 323.583 409.348ZM348.208 419.624C345.541 419.62 343.449 419.177 341.93 418.295C340.438 417.413 339.373 416.198 338.735 414.65C338.124 413.103 337.82 411.329 337.823 409.329C337.829 405.649 338.646 403.01 340.275 401.412C341.904 399.788 344.092 398.978 346.839 398.982C348.492 398.985 349.958 399.267 351.238 399.829C352.517 400.391 353.516 401.192 354.234 402.233C354.952 403.248 355.311 404.488 355.308 405.955C355.302 410.222 352.259 412.35 346.179 412.341L343.859 412.338C344.071 413.165 344.417 413.819 344.896 414.299C345.402 414.753 346.282 414.981 347.535 414.983C348.228 414.984 348.788 414.945 349.215 414.866C349.642 414.786 350.042 414.707 350.416 414.628C350.816 414.548 351.269 414.509 351.776 414.51C352.496 414.511 353.069 414.645 353.495 414.912C353.921 415.153 354.134 415.66 354.133 416.433C354.131 417.526 353.65 418.339 352.689 418.871C351.755 419.376 350.261 419.627 348.208 419.624ZM343.583 409.377C343.797 409.084 344.037 408.898 344.304 408.818C344.571 408.712 344.984 408.659 345.544 408.66C347.118 408.663 348.198 408.518 348.785 408.225C349.399 407.906 349.706 407.347 349.708 406.547C349.709 405.533 349.43 404.759 348.871 404.225C348.312 403.664 347.606 403.383 346.752 403.382C345.766 403.381 344.992 403.793 344.43 404.619C343.869 405.444 343.587 407.031 343.583 409.377Z" fill="black"/>
<defs>
<linearGradient id="paint0_linear_2_17" x1="250" y1="0" x2="250" y2="500" gradientUnits="userSpaceOnUse">
<stop offset="0.169558" stop-color="#8B8888"/>
<stop offset="0.367296" stop-color="#918F8F"/>
<stop offset="0.554344" stop-color="#686767"/>
<stop offset="1" stop-color="#CECCCC"/>
</linearGradient>
<radialGradient id="paint1_angular_2_17" cx="0" cy="0" r="1" gradientUnits="userSpaceOnUse" gradientTransform="translate(250 250) rotate(90) scale(106)">
<stop offset="0.495" stop-color="#0E1946"/>
<stop offset="0.7075" stop-color="#182B79"/>
<stop offset="0.818774" stop-color="#0E1946"/>
</radialGradient>
<radialGradient id="paint2_angular_2_17" cx="0" cy="0" r="1" gradientUnits="userSpaceOnUse" gradientTransform="translate(250 250) rotate(90) scale(90)">
<stop offset="0.211478" stop-color="#AFAFAF"/>
<stop offset="0.439399" stop-color="#D9D9D9"/>
<stop offset="0.958018" stop-color="#737373"/>
</radialGradient>
</defs>
</svg>
